# Blender 4.0.2
# www.blender.org
mtllib card.mtl
o Card
v 1.786434 2.355000 0.002000
v 1.641434 2.500000 0.002000
v 1.785736 2.369212 0.002000
v 1.783648 2.383288 0.002000
v 1.780191 2.397091 0.002000
v 1.775397 2.410489 0.002000
v 1.769313 2.423352 0.002000
v 1.761997 2.435557 0.002000
v 1.753521 2.446987 0.002000
v 1.743965 2.457530 0.002000
v 1.733421 2.467086 0.002000
v 1.721992 2.475563 0.002000
v 1.709787 2.482878 0.002000
v 1.696923 2.488962 0.002000
v 1.683526 2.493756 0.002000
v 1.669723 2.497213 0.002000
v 1.655647 2.499301 0.002000
v 1.641434 2.500000 -0.002000
v 1.786434 2.355000 -0.002000
v 1.655647 2.499301 -0.002000
v 1.669723 2.497213 -0.002000
v 1.683526 2.493756 -0.002000
v 1.696923 2.488962 -0.002000
v 1.709787 2.482878 -0.002000
v 1.721992 2.475563 -0.002000
v 1.733421 2.467086 -0.002000
v 1.743965 2.457530 -0.002000
v 1.753521 2.446987 -0.002000
v 1.761997 2.435557 -0.002000
v 1.769313 2.423352 -0.002000
v 1.775397 2.410489 -0.002000
v 1.780191 2.397091 -0.002000
v 1.783648 2.383288 -0.002000
v 1.785736 2.369212 -0.002000
v -1.641434 2.500000 0.002000
v -1.786434 2.355000 0.002000
v -1.655647 2.499301 0.002000
v -1.669723 2.497213 0.002000
v -1.683526 2.493756 0.002000
v -1.696923 2.488962 0.002000
v -1.709787 2.482878 0.002000
v -1.721992 2.475563 0.002000
v -1.733421 2.467086 0.002000
v -1.743965 2.457530 0.002000
v -1.753521 2.446987 0.002000
v -1.761997 2.435557 0.002000
v -1.769313 2.423352 0.002000
v -1.775397 2.410489 0.002000
v -1.780191 2.397091 0.002000
v -1.783648 2.383288 0.002000
v -1.785736 2.369212 0.002000
v -1.786434 2.355000 -0.002000
v -1.641434 2.500000 -0.002000
v -1.785736 2.369212 -0.002000
v -1.783648 2.383288 -0.002000
v -1.780191 2.397091 -0.002000
v -1.775397 2.410489 -0.002000
v -1.769313 2.423352 -0.002000
v -1.761997 2.435557 -0.002000
v -1.753521 2.446987 -0.002000
v -1.743965 2.457530 -0.002000
v -1.733421 2.467086 -0.002000
v -1.721992 2.475563 -0.002000
v -1.709787 2.482878 -0.002000
v -1.696923 2.488962 -0.002000
v -1.683526 2.493756 -0.002000
v -1.669723 2.497213 -0.002000
v -1.655647 2.499301 -0.002000
v -1.786434 -2.355000 0.002000
v -1.641434 -2.500000 0.002000
v -1.785736 -2.369212 0.002000
v -1.783648 -2.383288 0.002000
v -1.780191 -2.397091 0.002000
v -1.775397 -2.410489 0.002000
v -1.769313 -2.423352 0.002000
v -1.761997 -2.435557 0.002000
v -1.753521 -2.446987 0.002000
v -1.743965 -2.457530 0.002000
v -1.733421 -2.467086 0.002000
v -1.721992 -2.475563 0.002000
v -1.709787 -2.482878 0.002000
v -1.696923 -2.488962 0.002000
v -1.683526 -2.493756 0.002000
v -1.669723 -2.497213 0.002000
v -1.655647 -2.499301 0.002000
v -1.641434 -2.500000 -0.002000
v -1.786434 -2.355000 -0.002000
v -1.655647 -2.499301 -0.002000
v -1.669723 -2.497213 -0.002000
v -1.683526 -2.493756 -0.002000
v -1.696923 -2.488962 -0.002000
v -1.709787 -2.482878 -0.002000
v -1.721992 -2.475563 -0.002000
v -1.733421 -2.467086 -0.002000
v -1.743965 -2.457530 -0.002000
v -1.753521 -2.446987 -0.002000
v -1.761997 -2.435557 -0.002000
v -1.769313 -2.423352 -0.002000
v -1.775397 -2.410489 -0.002000
v -1.780191 -2.397091 -0.002000
v -1.783648 -2.383288 -0.002000
v -1.785736 -2.369212 -0.002000
v 1.641434 -2.500000 0.002000
v 1.786434 -2.355000 0.002000
v 1.655647 -2.499301 0.002000
v 1.669723 -2.497213 0.002000
v 1.683526 -2.493756 0.002000
v 1.696923 -2.488962 0.002000
v 1.709787 -2.482878 0.002000
v 1.721992 -2.475563 0.002000
v 1.733421 -2.467086 0.002000
v 1.743965 -2.457530 0.002000
v 1.753521 -2.446987 0.002000
v 1.761997 -2.435557 0.002000
v 1.769313 -2.423352 0.002000
v 1.775397 -2.410489 0.002000
v 1.780191 -2.397091 0.002000
v 1.783648 -2.383288 0.002000
v 1.785736 -2.369212 0.002000
v 1.786434 -2.355000 -0.002000
v 1.641434 -2.500000 -0.002000
v 1.785736 -2.369212 -0.002000
v 1.783648 -2.383288 -0.002000
v 1.780191 -2.397091 -0.002000
v 1.775397 -2.410489 -0.002000
v 1.769313 -2.423352 -0.002000
v 1.761997 -2.435557 -0.002000
v 1.753521 -2.446987 -0.002000
v 1.743965 -2.457530 -0.002000
v 1.733421 -2.467086 -0.002000
v 1.721992 -2.475563 -0.002000
v 1.709787 -2.482878 -0.002000
v 1.696923 -2.488962 -0.002000
v 1.683526 -2.493756 -0.002000
v 1.669723 -2.497213 -0.002000
v 1.655647 -2.499301 -0.002000
vn -0.0000 1.0000 -0.0000
vn -0.0000 -0.0000 -1.0000
vn -0.0000 -0.0000 1.0000
vn 0.0491 0.9988 -0.0000
vn 0.1467 0.9892 -0.0000
vn 0.2430 0.9700 -0.0000
vn 0.3369 0.9415 -0.0000
vn 0.4276 0.9040 -0.0000
vn 0.5141 0.8577 -0.0000
vn 0.5957 0.8032 -0.0000
vn 0.6716 0.7409 -0.0000
vn 0.7409 0.6716 -0.0000
vn 0.8032 0.5957 -0.0000
vn 0.8577 0.5141 -0.0000
vn 0.9040 0.4276 -0.0000
vn 0.9415 0.3369 -0.0000
vn 0.9700 0.2430 -0.0000
vn 0.9892 0.1467 -0.0000
vn 0.9988 0.0491 -0.0000
vn -0.0491 0.9988 -0.0000
vn -0.1467 0.9892 -0.0000
vn -0.2430 0.9700 -0.0000
vn -0.3369 0.9415 -0.0000
vn -0.4276 0.9040 -0.0000
vn -0.5141 0.8577 -0.0000
vn -0.5957 0.8032 -0.0000
vn -0.6716 0.7409 -0.0000
vn -0.7409 0.6716 -0.0000
vn -0.8032 0.5957 -0.0000
vn -0.8577 0.5141 -0.0000
vn -0.9040 0.4276 -0.0000
vn -0.9415 0.3369 -0.0000
vn -0.9700 0.2430 -0.0000
vn -0.9892 0.1467 -0.0000
vn -0.9988 0.0491 -0.0000
vn -1.0000 -0.0000 -0.0000
vn -0.0491 -0.9988 -0.0000
vn -0.1467 -0.9892 -0.0000
vn -0.2430 -0.9700 -0.0000
vn -0.3369 -0.9415 -0.0000
vn -0.4276 -0.9040 -0.0000
vn -0.5141 -0.8577 -0.0000
vn -0.5957 -0.8032 -0.0000
vn -0.6716 -0.7409 -0.0000
vn -0.7409 -0.6716 -0.0000
vn -0.8032 -0.5957 -0.0000
vn -0.8577 -0.5141 -0.0000
vn -0.9040 -0.4276 -0.0000
vn -0.9415 -0.3369 -0.0000
vn -0.9700 -0.2430 -0.0000
vn -0.9892 -0.1467 -0.0000
vn -0.9988 -0.0491 -0.0000
vn 1.0000 -0.0000 -0.0000
vn 0.0491 -0.9988 -0.0000
vn 0.1467 -0.9892 -0.0000
vn 0.2430 -0.9700 -0.0000
vn 0.3369 -0.9415 -0.0000
vn 0.4276 -0.9040 -0.0000
vn 0.5141 -0.8577 -0.0000
vn 0.5957 -0.8032 -0.0000
vn 0.6716 -0.7409 -0.0000
vn 0.7409 -0.6716 -0.0000
vn 0.8032 -0.5957 -0.0000
vn 0.8577 -0.5141 -0.0000
vn 0.9040 -0.4276 -0.0000
vn 0.9415 -0.3369 -0.0000
vn 0.9700 -0.2430 -0.0000
vn 0.9892 -0.1467 -0.0000
vn 0.9988 -0.0491 -0.0000
vn -0.0000 -1.0000 -0.0000
vt 0.635146 0.500000
vt 0.864854 0.500000
vt 0.864854 0.750000
vt 0.635146 0.750000
vt 0.959261 0.000170
vt 0.963237 0.000309
vt 0.967176 0.000727
vt 0.971037 0.001418
vt 0.974786 0.002376
vt 0.978385 0.003593
vt 0.981800 0.005055
vt 0.984998 0.006750
vt 0.987948 0.008660
vt 0.990622 0.010769
vt 0.992993 0.013054
vt 0.995040 0.015494
vt 0.996743 0.018066
vt 0.998084 0.020744
vt 0.999051 0.023504
vt 0.999635 0.026318
vt 0.999831 0.029160
vt 0.999831 0.970840
vt 0.999635 0.973682
vt 0.999051 0.976496
vt 0.998084 0.979256
vt 0.996743 0.981934
vt 0.995040 0.984506
vt 0.992993 0.986947
vt 0.990622 0.989232
vt 0.987948 0.991340
vt 0.984998 0.993250
vt 0.981800 0.994945
vt 0.978385 0.996407
vt 0.974786 0.997624
vt 0.971037 0.998582
vt 0.967176 0.999274
vt 0.963237 0.999691
vt 0.959261 0.999830
vt 0.040739 0.999830
vt 0.036763 0.999691
vt 0.032825 0.999274
vt 0.028963 0.998582
vt 0.025214 0.997624
vt 0.021615 0.996407
vt 0.018200 0.994945
vt 0.015002 0.993250
vt 0.012052 0.991340
vt 0.009379 0.989232
vt 0.007007 0.986947
vt 0.004960 0.984506
vt 0.003258 0.981934
vt 0.001916 0.979256
vt 0.000949 0.976496
vt 0.000365 0.973682
vt 0.000169 0.970840
vt 0.000169 0.029160
vt 0.000365 0.026318
vt 0.000949 0.023504
vt 0.001916 0.020744
vt 0.003258 0.018066
vt 0.004960 0.015494
vt 0.007007 0.013054
vt 0.009379 0.010769
vt 0.012052 0.008660
vt 0.015002 0.006750
vt 0.018200 0.005055
vt 0.021615 0.003593
vt 0.025214 0.002376
vt 0.028963 0.001418
vt 0.032825 0.000727
vt 0.036763 0.000309
vt 0.040739 0.000170
vt 0.959416 0.000000
vt 0.963394 0.000140
vt 0.967334 0.000557
vt 0.971197 0.001249
vt 0.974947 0.002207
vt 0.978547 0.003424
vt 0.981964 0.004887
vt 0.985162 0.006583
vt 0.988113 0.008494
vt 0.990788 0.010603
vt 0.993160 0.012888
vt 0.995208 0.015330
vt 0.996911 0.017902
vt 0.998253 0.020582
vt 0.999220 0.023342
vt 0.999804 0.026157
vt 1.000000 0.029000
vt 1.000000 0.971000
vt 0.999804 0.973843
vt 0.999220 0.976658
vt 0.998253 0.979418
vt 0.996911 0.982098
vt 0.995208 0.984670
vt 0.993160 0.987111
vt 0.990788 0.989397
vt 0.988113 0.991506
vt 0.985162 0.993417
vt 0.981964 0.995113
vt 0.978547 0.996576
vt 0.974947 0.997792
vt 0.971197 0.998751
vt 0.967334 0.999443
vt 0.963394 0.999860
vt 0.959416 1.000000
vt 0.040584 1.000000
vt 0.036606 0.999860
vt 0.032666 0.999443
vt 0.028803 0.998751
vt 0.025053 0.997792
vt 0.021453 0.996576
vt 0.018037 0.995113
vt 0.014838 0.993417
vt 0.011887 0.991506
vt 0.009212 0.989397
vt 0.006840 0.987111
vt 0.004792 0.984670
vt 0.003089 0.982098
vt 0.001748 0.979418
vt 0.000780 0.976658
vt 0.000195 0.973843
vt 0.000000 0.971000
vt 0.000000 0.029000
vt 0.000195 0.026157
vt 0.000780 0.023342
vt 0.001748 0.020582
vt 0.003089 0.017902
vt 0.004792 0.015330
vt 0.006840 0.012888
vt 0.009212 0.010603
vt 0.011887 0.008494
vt 0.014838 0.006583
vt 0.018037 0.004887
vt 0.021453 0.003424
vt 0.025053 0.002207
vt 0.028803 0.001249
vt 0.032666 0.000557
vt 0.036606 0.000140
vt 0.040584 0.000000
vt 0.634151 0.750000
vt 0.634151 0.500000
vt 0.633167 0.750000
vt 0.633167 0.500000
vt 0.632201 0.750000
vt 0.632201 0.500000
vt 0.631263 0.750000
vt 0.631263 0.500000
vt 0.630363 0.750000
vt 0.630363 0.500000
vt 0.629509 0.750000
vt 0.629509 0.500000
vt 0.628709 0.750000
vt 0.628709 0.500000
vt 0.625000 0.750000
vt 0.625000 0.500000
vt 0.622349 0.750000
vt 0.622349 0.500000
vt 0.621778 0.750000
vt 0.621778 0.500000
vt 0.621168 0.750000
vt 0.621168 0.500000
vt 0.620524 0.750000
vt 0.620524 0.500000
vt 0.619855 0.750000
vt 0.619855 0.500000
vt 0.619164 0.750000
vt 0.619164 0.500000
vt 0.618461 0.750000
vt 0.618461 0.500000
vt 0.617750 0.750000
vt 0.617750 0.500000
vt 0.865849 0.500000
vt 0.865849 0.750000
vt 0.866833 0.500000
vt 0.866833 0.750000
vt 0.867799 0.500000
vt 0.867799 0.750000
vt 0.868737 0.500000
vt 0.868737 0.750000
vt 0.869637 0.500000
vt 0.869637 0.750000
vt 0.870491 0.500000
vt 0.870491 0.750000
vt 0.871291 0.500000
vt 0.871291 0.750000
vt 0.875000 0.500000
vt 0.875000 0.750000
vt 0.625000 0.000000
vt 0.625000 0.250000
vt 0.622349 0.250000
vt 0.622349 0.000000
vt 0.621778 0.250000
vt 0.621778 0.000000
vt 0.621168 0.250000
vt 0.621168 0.000000
vt 0.620524 0.250000
vt 0.620524 0.000000
vt 0.619855 0.250000
vt 0.619855 0.000000
vt 0.619164 0.250000
vt 0.619164 0.000000
vt 0.618461 0.250000
vt 0.618461 0.000000
vt 0.617750 0.250000
vt 0.617750 0.000000
vt 0.382250 0.000000
vt 0.382250 0.250000
vt 0.135146 0.500000
vt 0.135146 0.750000
vt 0.134151 0.750000
vt 0.134151 0.500000
vt 0.133167 0.750000
vt 0.133167 0.500000
vt 0.132201 0.750000
vt 0.132201 0.500000
vt 0.131263 0.750000
vt 0.131263 0.500000
vt 0.130363 0.750000
vt 0.130363 0.500000
vt 0.129509 0.750000
vt 0.129509 0.500000
vt 0.128709 0.750000
vt 0.128709 0.500000
vt 0.125000 0.750000
vt 0.125000 0.500000
vt 0.375000 0.250000
vt 0.375000 0.000000
vt 0.377651 0.000000
vt 0.377651 0.250000
vt 0.378222 0.000000
vt 0.378222 0.250000
vt 0.378832 0.000000
vt 0.378832 0.250000
vt 0.379476 0.000000
vt 0.379476 0.250000
vt 0.380145 0.000000
vt 0.380145 0.250000
vt 0.380836 0.000000
vt 0.380836 0.250000
vt 0.381539 0.000000
vt 0.381539 0.250000
vt 0.382250 0.500000
vt 0.382250 0.750000
vt 0.364854 0.750000
vt 0.364854 0.500000
vt 0.365849 0.500000
vt 0.365849 0.750000
vt 0.366833 0.500000
vt 0.366833 0.750000
vt 0.367799 0.500000
vt 0.367799 0.750000
vt 0.368737 0.500000
vt 0.368737 0.750000
vt 0.369637 0.500000
vt 0.369637 0.750000
vt 0.370491 0.500000
vt 0.370491 0.750000
vt 0.371291 0.500000
vt 0.371291 0.750000
vt 0.375000 0.500000
vt 0.375000 0.750000
vt 0.377651 0.500000
vt 0.377651 0.750000
vt 0.378222 0.500000
vt 0.378222 0.750000
vt 0.378832 0.500000
vt 0.378832 0.750000
vt 0.379476 0.500000
vt 0.379476 0.750000
vt 0.380145 0.500000
vt 0.380145 0.750000
vt 0.380836 0.500000
vt 0.380836 0.750000
vt 0.381539 0.500000
vt 0.381539 0.750000
s 0
usemtl Bordo
f 18/1/1 53/2/1 35/3/1 2/4/1
f 18/1/4 2/4/4 17/141/4 20/142/4
f 20/142/5 17/141/5 16/143/5 21/144/5
f 21/144/6 16/143/6 15/145/6 22/146/6
f 22/146/7 15/145/7 14/147/7 23/148/7
f 23/148/8 14/147/8 13/149/8 24/150/8
f 24/150/9 13/149/9 12/151/9 25/152/9
f 25/152/10 12/151/10 11/153/10 26/154/10
f 26/154/11 11/153/11 10/155/11 27/156/11
f 27/156/12 10/155/12 9/157/12 28/158/12
f 28/158/13 9/157/13 8/159/13 29/160/13
f 29/160/14 8/159/14 7/161/14 30/162/14
f 30/162/15 7/161/15 6/163/15 31/164/15
f 31/164/16 6/163/16 5/165/16 32/166/16
f 32/166/17 5/165/17 4/167/17 33/168/17
f 33/168/18 4/167/18 3/169/18 34/170/18
f 34/170/19 3/169/19 1/171/19 19/172/19
f 35/3/20 53/2/20 68/173/20 37/174/20
f 37/174/21 68/173/21 67/175/21 38/176/21
f 38/176/22 67/175/22 66/177/22 39/178/22
f 39/178/23 66/177/23 65/179/23 40/180/23
f 40/180/24 65/179/24 64/181/24 41/182/24
f 41/182/25 64/181/25 63/183/25 42/184/25
f 42/184/26 63/183/26 62/185/26 43/186/26
f 43/186/27 62/185/27 61/187/27 44/188/27
f 44/189/28 61/190/28 60/191/28 45/192/28
f 45/192/29 60/191/29 59/193/29 46/194/29
f 46/194/30 59/193/30 58/195/30 47/196/30
f 47/196/31 58/195/31 57/197/31 48/198/31
f 48/198/32 57/197/32 56/199/32 49/200/32
f 49/200/33 56/199/33 55/201/33 50/202/33
f 50/202/34 55/201/34 54/203/34 51/204/34
f 51/204/35 54/203/35 52/205/35 36/206/35
f 69/207/36 36/206/36 52/205/36 87/208/36
f 86/209/37 70/210/37 85/211/37 88/212/37
f 88/212/38 85/211/38 84/213/38 89/214/38
f 89/214/39 84/213/39 83/215/39 90/216/39
f 90/216/40 83/215/40 82/217/40 91/218/40
f 91/218/41 82/217/41 81/219/41 92/220/41
f 92/220/42 81/219/42 80/221/42 93/222/42
f 93/222/43 80/221/43 79/223/43 94/224/43
f 94/224/44 79/223/44 78/225/44 95/226/44
f 95/227/45 78/228/45 77/229/45 96/230/45
f 96/230/46 77/229/46 76/231/46 97/232/46
f 97/232/47 76/231/47 75/233/47 98/234/47
f 98/234/48 75/233/48 74/235/48 99/236/48
f 99/236/49 74/235/49 73/237/49 100/238/49
f 100/238/50 73/237/50 72/239/50 101/240/50
f 101/240/51 72/239/51 71/241/51 102/242/51
f 102/242/52 71/241/52 69/207/52 87/208/52
f 120/243/53 19/172/53 1/171/53 104/244/53
f 103/245/54 121/246/54 136/247/54 105/248/54
f 105/248/55 136/247/55 135/249/55 106/250/55
f 106/250/56 135/249/56 134/251/56 107/252/56
f 107/252/57 134/251/57 133/253/57 108/254/57
f 108/254/58 133/253/58 132/255/58 109/256/58
f 109/256/59 132/255/59 131/257/59 110/258/59
f 110/258/60 131/257/60 130/259/60 111/260/60
f 111/260/61 130/259/61 129/261/61 112/262/61
f 112/262/62 129/261/62 128/263/62 113/264/62
f 113/264/63 128/263/63 127/265/63 114/266/63
f 114/266/64 127/265/64 126/267/64 115/268/64
f 115/268/65 126/267/65 125/269/65 116/270/65
f 116/270/66 125/269/66 124/271/66 117/272/66
f 117/272/67 124/271/67 123/273/67 118/274/67
f 118/274/68 123/273/68 122/275/68 119/276/68
f 119/276/69 122/275/69 120/243/69 104/244/69
f 86/209/70 121/246/70 103/245/70 70/210/70
usemtl Front
f 86/5/2 88/6/2 89/7/2 90/8/2 91/9/2 92/10/2 93/11/2 94/12/2 95/13/2 96/14/2 97/15/2 98/16/2 99/17/2 100/18/2 101/19/2 102/20/2 87/21/2 52/22/2 54/23/2 55/24/2 56/25/2 57/26/2 58/27/2 59/28/2 60/29/2 61/30/2 62/31/2 63/32/2 64/33/2 65/34/2 66/35/2 67/36/2 68/37/2 53/38/2 18/39/2 20/40/2 21/41/2 22/42/2 23/43/2 24/44/2 25/45/2 26/46/2 27/47/2 28/48/2 29/49/2 30/50/2 31/51/2 32/52/2 33/53/2 34/54/2 19/55/2 120/56/2 122/57/2 123/58/2 124/59/2 125/60/2 126/61/2 127/62/2 128/63/2 129/64/2 130/65/2 131/66/2 132/67/2 133/68/2 134/69/2 135/70/2 136/71/2 121/72/2
usemtl Back
f 103/73/3 105/74/3 106/75/3 107/76/3 108/77/3 109/78/3 110/79/3 111/80/3 112/81/3 113/82/3 114/83/3 115/84/3 116/85/3 117/86/3 118/87/3 119/88/3 104/89/3 1/90/3 3/91/3 4/92/3 5/93/3 6/94/3 7/95/3 8/96/3 9/97/3 10/98/3 11/99/3 12/100/3 13/101/3 14/102/3 15/103/3 16/104/3 17/105/3 2/106/3 35/107/3 37/108/3 38/109/3 39/110/3 40/111/3 41/112/3 42/113/3 43/114/3 44/115/3 45/116/3 46/117/3 47/118/3 48/119/3 49/120/3 50/121/3 51/122/3 36/123/3 69/124/3 71/125/3 72/126/3 73/127/3 74/128/3 75/129/3 76/130/3 77/131/3 78/132/3 79/133/3 80/134/3 81/135/3 82/136/3 83/137/3 84/138/3 85/139/3 70/140/3
